<svg width="14" height="15" viewBox="0 0 14 15" fill="none" xmlns="http://www.w3.org/2000/svg">
<path d="M13.2156 6.31818C13.2156 10.4545 7.11609 14 7.11609 14C7.11609 14 1.0166 10.4545 1.0166 6.31818C1.0166 4.90771 1.65922 3.55501 2.8031 2.55766C3.94698 1.56031 5.49841 1 7.11609 1C8.73378 1 10.2852 1.56031 11.4291 2.55766C12.573 3.55501 13.2156 4.90771 13.2156 6.31818Z" stroke="#698096" stroke-linecap="round" stroke-linejoin="round"/>
<path d="M7.11609 8.09091C8.23898 8.09091 9.14926 7.29723 9.14926 6.31818C9.14926 5.33913 8.23898 4.54545 7.11609 4.54545C5.99321 4.54545 5.08293 5.33913 5.08293 6.31818C5.08293 7.29723 5.99321 8.09091 7.11609 8.09091Z" stroke="#698096" stroke-linecap="round" stroke-linejoin="round"/>
</svg>
