<svg width="15" height="16" viewBox="0 0 15 16" fill="none" xmlns="http://www.w3.org/2000/svg">
<path d="M14.1509 6.72727C14.1509 11.1818 7.57546 15 7.57546 15C7.57546 15 1 11.1818 1 6.72727C1 5.2083 1.69277 3.75155 2.92591 2.67748C4.15905 1.60341 5.83154 1 7.57546 1C9.31939 1 10.9919 1.60341 12.225 2.67748C13.4582 3.75155 14.1509 5.2083 14.1509 6.72727Z" stroke="#0080FF" stroke-linecap="round" stroke-linejoin="round"/>
<path d="M7.57546 8.63636C8.78597 8.63636 9.76729 7.78163 9.76729 6.72727C9.76729 5.67291 8.78597 4.81818 7.57546 4.81818C6.36495 4.81818 5.38364 5.67291 5.38364 6.72727C5.38364 7.78163 6.36495 8.63636 7.57546 8.63636Z" stroke="#0080FF" stroke-linecap="round" stroke-linejoin="round"/>
</svg>
