<svg width="16" height="16" viewBox="0 0 16 16" fill="none" xmlns="http://www.w3.org/2000/svg">
<path d="M11.4509 15V13.4444C11.4509 12.6193 11.1796 11.828 10.6967 11.2446C10.2138 10.6611 9.55883 10.3333 8.8759 10.3333H3.72589C3.04295 10.3333 2.38799 10.6611 1.90508 11.2446C1.42217 11.828 1.15088 12.6193 1.15088 13.4444V15M15.3134 15V13.4444C15.313 12.7551 15.1231 12.0855 14.7735 11.5407C14.424 10.9959 13.9346 10.6068 13.3822 10.4344M10.8072 1.10111C11.3611 1.27246 11.852 1.66166 12.2026 2.20735C12.5532 2.75305 12.7435 3.4242 12.7435 4.115C12.7435 4.8058 12.5532 5.47695 12.2026 6.02265C11.852 6.56834 11.3611 6.95754 10.8072 7.12889M8.8759 4.11111C8.8759 5.82933 7.72303 7.22222 6.30089 7.22222C4.87876 7.22222 3.72589 5.82933 3.72589 4.11111C3.72589 2.39289 4.87876 1 6.30089 1C7.72303 1 8.8759 2.39289 8.8759 4.11111Z" stroke="#0080FF" stroke-linecap="round" stroke-linejoin="round"/>
</svg>
